<?xml version="1.0" encoding="UTF-8" standalone="no"?>
<!DOCTYPE svg PUBLIC "-//W3C//DTD SVG 1.1//EN" "http://www.w3.org/Graphics/SVG/1.1/DTD/svg11.dtd">
<svg width="100%" height="100%" viewBox="0 0 7112 7112" version="1.1" xmlns="http://www.w3.org/2000/svg" xmlns:xlink="http://www.w3.org/1999/xlink" xml:space="preserve" xmlns:serif="http://www.serif.com/" style="fill-rule:evenodd;clip-rule:evenodd;stroke-linejoin:round;stroke-miterlimit:2;">
    <g transform="matrix(5.55556,0,0,5.55556,0,0)">
        <g id="_:1" transform="matrix(1.81139,0,0,1.81139,-519.289,-519.289)">
            <g>
                <g>
                    <path d="M787.7,491.054L844.441,464.313L844.441,761.377L787.7,491.054Z" style="fill:rgb(134,107,178);fill-rule:nonzero;"/>
                    <path d="M645.427,857.945L831.127,822.595L645.427,980.878L645.427,857.945Z" style="fill:rgb(106,76,153);fill-rule:nonzero;"/>
                    <path d="M506.077,493.375L773.691,493.375L639.996,838.63L506.077,493.375Z" style="fill:rgb(223,204,255);fill-rule:nonzero;"/>
                    <path d="M779.987,507.077L843.458,809.475L648.518,846.582L779.987,507.077Z" style="fill:rgb(208,178,255);fill-rule:nonzero;"/>
                    <path d="M508.256,482.801L639.997,286.68L771.514,482.801L508.256,482.801Z" style="fill:rgb(239,229,255);fill-rule:nonzero;"/>
                    <path d="M448.872,822.595L634.571,857.945L634.571,980.878L448.872,822.595Z" style="fill:rgb(106,76,153);fill-rule:nonzero;"/>
                    <path d="M436.54,809.475L499.787,507.08L631.479,846.581L436.54,809.475Z" style="fill:rgb(208,178,255);fill-rule:nonzero;"/>
                    <path d="M435.559,464.338L492.067,491.052L435.559,761.206L435.559,464.338Z" style="fill:rgb(134,107,178);fill-rule:nonzero;"/>
                    <path d="M439.86,454.618L613.79,306.369L496.299,481.306L439.86,454.618Z" style="fill:rgb(134,107,178);fill-rule:nonzero;"/>
                    <path d="M666.118,306.303L840.133,454.612L783.47,481.309L666.118,306.303Z" style="fill:rgb(134,107,178);fill-rule:nonzero;"/>
                </g>
                <path d="M844.441,993.32L844.441,827.346L744.934,910.333L844.441,993.32Z" style="fill:rgb(15,176,181);fill-rule:nonzero;"/>
                <path d="M744.934,910.333L645.427,993.32L844.44,993.32L744.933,910.333L744.934,910.333Z" style="fill:rgb(22,211,216);"/>
            </g>
        </g>
    </g>
</svg>
