<?xml version="1.0" encoding="UTF-8"?><svg id="_:1" xmlns="http://www.w3.org/2000/svg" viewBox="0 0 1280 1280"><defs><style>.cls-1{fill:#6d30d1;}.cls-2{fill:#0fb0b5;}.cls-3,.cls-4{fill:#16d3d8;}.cls-5{fill:#160238;}.cls-6{fill:#451e84;}.cls-7{fill:#2b1352;}.cls-8{fill:#602ab8;}.cls-4{fill-rule:evenodd;}</style></defs><g><path class="cls-6" d="M132.119,948.47h52.313c12.558,0,23.55,2.806,32.971,8.418,9.42,5.611,16.736,13.698,21.947,24.252,5.212,10.557,7.817,22.984,7.817,37.28,0,14.431-2.605,26.958-7.817,37.581-5.212,10.623-12.561,18.74-22.047,24.352-9.489,5.612-20.513,8.418-33.071,8.418h-52.112v-140.301Zm48.906,121.26c13.36,0,24.051-4.274,32.068-12.827,8.018-8.549,12.027-21.377,12.027-38.483s-3.978-29.93-11.926-38.483c-7.952-8.55-18.675-12.828-32.169-12.828h-28.662v102.62h28.662Z"/><path class="cls-6" d="M282.039,1083.159c-6.549-4.676-11.525-11.155-14.932-19.442-3.408-8.284-5.111-17.704-5.111-28.261,0-10.688,1.735-20.174,5.211-28.461,3.473-8.284,8.518-14.798,15.133-19.542,6.614-4.741,14.532-7.115,23.751-7.115s16.566,2.139,22.047,6.414c5.477,4.278,9.621,9.219,12.427,14.832h1.403v-18.439h20.845v105.627h-20.845v-20.444h-1.403c-2.941,5.882-7.215,10.992-12.827,15.333-5.612,4.343-13.028,6.513-22.248,6.513-9.088,0-16.905-2.336-23.45-7.015Zm52.212-21.145c5.011-7.281,7.516-16.2,7.516-26.758s-2.506-19.442-7.516-26.657c-5.011-7.215-12.261-10.823-21.746-10.823-9.621,0-16.906,3.608-21.847,10.823-4.945,7.216-7.416,16.035-7.416,26.457,0,10.692,2.437,19.676,7.316,26.958,4.876,7.284,12.191,10.924,21.947,10.924,9.485,0,16.736-3.64,21.746-10.924Z"/><path class="cls-6" d="M422.137,999.58v56.521c0,4.945,.232,8.553,.702,10.823,.466,2.274,1.735,4.078,3.808,5.412,2.07,1.337,5.511,2.004,10.322,2.004,3.339,0,6.614-.401,9.822-1.202v14.631c-.937,.401-3.141,.802-6.615,1.202-3.475,.401-6.949,.602-10.422,.602-8.418,0-14.701-1.234-18.841-3.708-4.143-2.471-6.783-5.678-7.917-9.621-1.137-3.939-1.704-9.12-1.704-15.533l.2-61.132h-19.041v-16.435h19.041v-34.674h20.645v34.674h24.653v16.435h-24.653Z"/><path class="cls-6" d="M483.468,1083.159c-6.549-4.676-11.525-11.155-14.932-19.442-3.407-8.284-5.111-17.704-5.111-28.261,0-10.688,1.735-20.174,5.212-28.461,3.473-8.284,8.518-14.798,15.132-19.542,6.615-4.741,14.532-7.115,23.751-7.115s16.567,2.139,22.048,6.414c5.477,4.278,9.621,9.219,12.426,14.832h1.403v-18.439h20.845v105.627h-20.845v-20.444h-1.403c-2.941,5.882-7.215,10.992-12.827,15.333-5.612,4.343-13.028,6.513-22.248,6.513-9.089,0-16.906-2.336-23.45-7.015Zm52.211-21.145c5.011-7.281,7.517-16.2,7.517-26.758s-2.506-19.442-7.517-26.657c-5.01-7.215-12.26-10.823-21.746-10.823-9.621,0-16.905,3.608-21.847,10.823-4.945,7.216-7.416,16.035-7.416,26.457,0,10.692,2.437,19.676,7.316,26.958,4.877,7.284,12.192,10.924,21.947,10.924,9.486,0,16.736-3.64,21.746-10.924Z"/><path class="cls-6" d="M625.169,958.291c-2.14,1.738-3.442,3.843-3.909,6.314-.47,2.474-.702,5.646-.702,9.521v9.019h24.653v16.435h-24.653v89.192h-20.644l-.2-89.192h-14.03v-16.435h14.03v-12.827c0-19.643,10.021-29.463,30.064-29.463,2.938,0,5.913,.169,8.919,.501,3.007,.336,5.177,.702,6.514,1.103v14.23c-2.941-.666-6.282-1.002-10.021-1.002-4.544,0-7.886,.871-10.021,2.606Z"/><path class="cls-6" d="M671.668,1083.159c-6.549-4.676-11.525-11.155-14.932-19.442-3.407-8.284-5.111-17.704-5.111-28.261,0-10.688,1.735-20.174,5.212-28.461,3.473-8.284,8.518-14.798,15.132-19.542,6.614-4.741,14.531-7.115,23.751-7.115s16.567,2.139,22.047,6.414c5.477,4.278,9.621,9.219,12.427,14.832h1.403v-18.439h20.844v105.627h-20.844v-20.444h-1.403c-2.941,5.882-7.216,10.992-12.828,15.333-5.612,4.343-13.028,6.513-22.247,6.513-9.089,0-16.906-2.336-23.451-7.015Zm52.212-21.145c5.011-7.281,7.516-16.2,7.516-26.758s-2.505-19.442-7.516-26.657c-5.011-7.215-12.26-10.823-21.747-10.823-9.621,0-16.904,3.608-21.846,10.823-4.945,7.216-7.416,16.035-7.416,26.457,0,10.692,2.437,19.676,7.315,26.958,4.877,7.284,12.193,10.924,21.947,10.924,9.487,0,16.736-3.64,21.747-10.924Z"/><path class="cls-6" d="M813.972,1083.661c-5.612-4.341-9.89-9.451-12.828-15.333h-1.403v20.444h-21.045v-150.323h21.045v63.136h1.403c2.805-5.612,6.946-10.554,12.427-14.832,5.477-4.275,12.827-6.414,22.047-6.414s17.136,2.374,23.751,7.115c6.614,4.745,11.625,11.259,15.033,19.542,3.406,8.286,5.111,17.772,5.111,28.461,0,10.557-1.705,19.978-5.111,28.261-3.408,8.286-8.387,14.766-14.933,19.442-6.547,4.679-14.364,7.015-23.45,7.015s-16.435-2.17-22.047-6.513Zm36.978-21.547c4.877-7.215,7.317-16.166,7.317-26.858,0-10.554-2.405-19.407-7.216-26.557-4.81-7.147-12.095-10.724-21.846-10.724-9.489,0-16.737,3.608-21.747,10.824-5.011,7.215-7.517,16.103-7.517,26.657s2.506,19.442,7.517,26.657c5.01,7.216,12.258,10.824,21.747,10.824,9.621,0,16.867-3.608,21.746-10.824Z"/><path class="cls-6" d="M900.355,983.145h20.645v16.836h1.202c1.735-4.676,4.841-8.65,9.32-11.926,4.475-3.272,10.253-4.91,17.337-4.91,1.87,0,3.473,.069,4.81,.2,1.334,.135,2.671,.47,4.008,1.002l-.802,19.643c-3.608-1.068-7.35-1.604-11.224-1.604-7.886,0-13.964,2.239-18.239,6.714-4.278,4.478-6.413,11.86-6.413,22.148v57.524h-20.645v-105.627Z"/><path class="cls-6" d="M977.919,960.296c-2.406-2.405-3.608-5.411-3.608-9.019s1.202-6.614,3.608-9.02,5.411-3.607,9.019-3.607,6.614,1.237,9.02,3.708c2.405,2.474,3.607,5.446,3.607,8.919s-1.202,6.448-3.607,8.919c-2.406,2.474-5.412,3.708-9.02,3.708s-6.614-1.202-9.019-3.608Zm-1.203,22.849h20.645v105.627h-20.645v-105.627Z"/><path class="cls-3" d="M1142.27,1051.191c3.739-9.821,5.611-20.745,5.611-32.77,0-14.03-2.474-26.557-7.415-37.581-4.945-11.024-12.195-19.674-21.747-25.956-9.555-6.279-20.945-9.42-34.174-9.42-13.363,0-24.853,3.176-34.474,9.521-9.621,6.348-16.905,15.032-21.846,26.056-4.945,11.023-7.416,23.419-7.416,37.18s2.471,26.09,7.416,36.979c4.942,10.892,12.192,19.442,21.746,25.655,9.552,6.213,21.077,9.32,34.574,9.32,10.554,0,20.043-2.004,28.461-6.013l11.825,15.033h19.241l-18.239-23.451c7.216-6.545,12.693-14.731,16.436-24.552Zm-19.643-10.022c-2.274,7.016-5.547,12.928-9.821,17.738l-.062-.08c-3.443,3.867-7.515,6.953-12.171,9.091l.007,.008c-.076,.035-.155,.064-.232,.099-.342,.154-.69,.298-1.038,.442-.317,.131-.635,.262-.956,.384-.312,.119-.628,.23-.945,.341-.374,.131-.751,.257-1.131,.376-.282,.088-.566,.172-.852,.254-.427,.123-.858,.237-1.291,.344-.26,.064-.52,.128-.782,.187-.469,.105-.942,.2-1.417,.288-.247,.046-.492,.093-.741,.135-.501,.083-1.007,.152-1.516,.216-.239,.03-.475,.065-.716,.091-.541,.058-1.09,.1-1.641,.138-.217,.015-.43,.037-.648,.048-.768,.04-1.542,.064-2.326,.064h-.003c-.787,0-1.562-.026-2.33-.065-.087-.005-.174-.008-.261-.014-7.467-.424-14.021-2.699-19.657-6.836-6.282-4.61-11.092-10.955-14.431-19.041-2.737-6.621-4.333-13.949-4.827-21.961-.006-.084-.011-.169-.016-.253-.043-.737-.082-1.478-.106-2.227-.027-.761-.041-1.528-.048-2.297-.002-.209-.013-.411-.013-.621,0-.029,.002-.057,.002-.086,0-.038-.002-.076-.002-.114,0-.987,.024-1.967,.065-2.942,.312-8.906,1.953-17.016,4.945-24.316,3.339-8.149,8.149-14.563,14.431-19.241,6.279-4.676,13.695-7.016,22.248-7.016h0c8.549,0,15.965,2.34,22.247,7.016,6.279,4.678,11.09,11.058,14.431,19.141,2.996,7.256,4.639,15.405,4.947,24.434,.04,.969,.064,1.943,.064,2.924,0,.038-.002,.075-.002,.113,0,.029,.002,.058,.002,.087,0,.877-.02,1.742-.045,2.604v.029c-.215,7.399-1.332,14.241-3.363,20.516Z"/></g><g><g><polygon class="cls-7" points="787.7 385.181 844.441 358.439 844.441 655.504 787.7 385.181"/><polygon class="cls-5" points="645.427 752.071 831.127 716.721 645.427 875.004 645.427 752.071"/><polygon class="cls-8" points="506.077 387.501 773.691 387.501 639.996 732.756 506.077 387.501"/><polygon class="cls-6" points="779.987 401.203 843.458 703.602 648.518 740.708 779.987 401.203"/><polygon class="cls-1" points="508.256 376.927 639.997 180.806 771.514 376.927 508.256 376.927"/><polygon class="cls-5" points="448.872 716.721 634.571 752.071 634.571 875.004 448.872 716.721"/><polygon class="cls-6" points="436.54 703.602 499.787 401.206 631.479 740.707 436.54 703.602"/><polygon class="cls-7" points="435.559 358.464 492.067 385.178 435.559 655.333 435.559 358.464"/><polygon class="cls-6" points="439.86 348.745 613.79 200.495 496.299 375.433 439.86 348.745"/><polygon class="cls-6" points="666.118 200.429 840.133 348.739 783.47 375.435 666.118 200.429"/></g><path class="cls-2" d="M844.441,887.447v-165.974l-99.507,82.987,99.507,82.987Z"/><path class="cls-4" d="M744.934,804.46l-99.507,82.987h199.013l-99.507-82.987Z"/></g></svg>