<?xml version="1.0" encoding="UTF-8" standalone="no"?>
<!DOCTYPE svg PUBLIC "-//W3C//DTD SVG 1.1//EN" "http://www.w3.org/Graphics/SVG/1.1/DTD/svg11.dtd">
<svg width="100%" height="100%" viewBox="0 0 518 418" version="1.1" xmlns="http://www.w3.org/2000/svg" xmlns:xlink="http://www.w3.org/1999/xlink" xml:space="preserve" xmlns:serif="http://www.serif.com/" style="fill-rule:evenodd;clip-rule:evenodd;">
    <g id="l7AtE9RVylw8T14vlQMshqd" transform="matrix(1.32068,0,0,1.32068,-135.335,-61.2094)">
        <g>
            <path id="pZ9lhmTCy" d="M372.431,336.772C370.582,336.244 350.772,329.377 328.188,321.717L287.247,307.718L249.344,320.396L211.44,332.943L204.045,327.396C199.95,324.358 197.177,321.453 197.705,320.792C198.234,320.264 212.761,315.245 229.798,309.699C317.226,281.304 437.936,241.156 438.861,240.363C439.521,239.703 434.635,237.59 427.899,235.345L415.749,231.383L183.574,308.774L178.952,303.359C176.442,300.322 174.329,297.284 174.197,296.624C174.197,295.964 222.402,279.191 281.436,259.249C340.47,239.439 387.883,222.93 386.826,222.534C377.978,219.232 364.903,215.27 363.186,215.27C361.997,215.27 316.698,230.062 262.418,248.155C190.442,272.191 163.632,280.644 162.707,279.587C162.047,278.663 160.198,275.493 158.613,272.456L155.972,267.041L159.802,265.588C164.424,264.003 164.688,263.079 160.99,261.758C158.745,260.834 160.462,259.909 169.839,257.004C179.348,253.966 182.253,253.438 185.159,254.626C188.196,255.683 191.498,255.023 204.705,250.664C219.761,245.514 223.987,243.004 217.647,243.004C212.629,243.004 216.723,240.759 228.213,237.193C236.005,234.816 240.627,234.024 244.193,234.552C248.023,235.212 252.645,234.288 262.683,230.986C275.625,226.76 279.191,224.515 273.116,224.515C268.097,224.515 272.191,222.27 283.813,218.704C292.53,215.931 295.832,215.402 298.605,216.459C301.642,217.515 305.472,216.723 318.811,212.233C328.056,209.195 335.452,206.422 335.452,206.026C335.452,205.629 325.018,201.799 312.34,197.441C285.266,188.196 284.21,187.008 298.605,181.725C305.076,179.348 310.227,178.291 316.038,178.423C320.528,178.423 323.302,178.82 322.245,179.216C316.434,181.065 316.302,181.197 320.264,183.046C324.886,185.027 387.222,205.761 425.786,218.044L451.935,226.364L451.143,232.967C450.747,236.533 449.162,243.269 447.709,247.759L444.936,256.079L437.012,258.324C432.654,259.513 428.824,260.966 428.559,261.494C428.163,262.022 430.673,263.475 433.842,264.796C437.144,265.984 439.785,267.701 439.785,268.361C439.785,269.814 433.446,281.304 432.654,281.304C432.389,281.304 425.786,278.663 417.994,275.361L403.731,269.418L388.807,274.304C380.487,277.078 373.751,279.587 373.751,279.983C373.751,280.38 384.317,284.21 397.127,288.7C409.938,293.058 420.767,297.416 421.032,298.209C421.296,299.001 419.183,302.171 416.409,305.076L411.391,310.491L346.678,288.304L330.169,293.85C315.378,298.869 314.057,299.661 316.962,300.85C318.811,301.642 336.508,307.718 356.318,314.321C375.997,321.056 392.241,326.867 392.241,327.396C392.241,328.188 377.317,338.225 376.261,337.961C375.997,337.961 374.28,337.433 372.431,336.772Z" style="fill:white;fill-rule:nonzero;stroke:white;stroke-width:1.32px;"/>
        </g>
    </g>
    <g id="l9nYKpjjepLpdSn67AHdf7" transform="matrix(1.32068,0,0,1.32068,-135.335,-61.2094)">
        <g>
            <path id="pw6NpvuJ0" d="M190.838,185.555C181.329,182.121 178.82,180.801 178.555,178.423C178.159,176.442 178.688,175.914 180.14,176.442C181.461,176.971 182.253,176.574 182.253,175.254C182.253,173.537 187.272,171.688 194.271,171.028C199.026,170.499 214.742,164.556 216.195,162.839C217.119,161.651 218.704,161.123 219.761,161.519C220.949,162.047 222.666,161.387 223.855,160.33C225.043,159.142 226.76,158.481 227.685,158.877C228.741,159.274 231.779,158.481 234.552,157.16C237.326,155.708 239.835,154.783 240.099,155.179C240.495,155.444 241.948,155.047 243.533,154.123C244.985,153.331 247.627,152.538 249.08,152.274C250.664,152.142 254.23,151.085 257.004,149.765C259.909,148.444 263.607,147.255 265.456,147.123C267.173,146.859 269.286,145.935 270.078,144.878C271.663,142.633 284.738,138.143 286.455,139.199C287.115,139.728 288.568,139.199 289.624,138.143C290.681,137.086 292.662,136.294 293.983,136.294C297.152,136.558 321.981,128.238 322.905,126.653C323.434,125.993 325.547,125.464 327.66,125.464C330.037,125.464 331.886,124.672 332.414,123.351C332.81,122.163 334.131,121.502 335.584,121.898C336.905,122.295 339.018,121.766 340.338,120.974C343.904,118.597 355.262,114.503 356.186,115.295C357.111,116.352 367.148,112.39 370.054,110.012C371.242,108.824 373.355,108.428 374.94,108.956C376.525,109.352 377.978,108.956 378.638,107.899C379.959,105.654 392.901,101.164 394.75,102.22C395.411,102.749 396.995,102.088 398.052,100.9C399.24,99.711 401.089,99.183 402.146,99.579C403.202,99.975 404.919,99.315 406.108,98.258C408.881,95.353 412.447,96.938 417.862,103.541C421.428,107.899 422.22,109.616 420.9,110.673C419.051,112.125 402.146,117.804 398.976,118.068C397.788,118.201 395.675,118.861 394.222,119.653C391.052,121.502 367.28,129.69 364.507,129.955C363.45,130.087 361.205,130.879 359.752,131.671C358.167,132.596 356.583,132.992 356.186,132.596C355.79,132.2 354.073,132.86 352.356,133.917C350.508,135.105 348.659,135.633 348.262,135.237C347.734,134.709 346.545,134.973 345.621,135.898C343.112,137.879 310.755,149.104 309.831,148.312C309.434,147.916 308.378,148.18 307.321,148.972C304.944,150.953 252.513,168.915 251.721,167.99C251.325,167.726 250.136,168.122 249.08,168.915C248.023,169.839 245.382,170.763 243.137,171.028C241.023,171.292 237.854,172.348 236.137,173.405C234.42,174.461 227.42,177.235 220.553,179.612C213.685,181.989 207.742,184.234 207.346,184.498C206.95,184.895 207.742,185.687 209.063,186.347C210.252,187.14 211.308,188.196 211.308,188.857C211.308,191.234 202.724,189.913 190.838,185.555Z" style="fill:white;fill-rule:nonzero;stroke:white;stroke-width:1.32px;"/>
            <path id="phtliUhkl" d="M147.255,170.103C146.463,167.726 147.123,158.481 148.18,158.481C148.576,158.481 149.633,156.632 150.425,154.519C151.35,151.878 153.198,150.029 155.84,149.104C160.462,147.387 160.726,146.463 157.16,144.218C154.519,142.633 154.519,142.633 157.293,136.954C161.387,128.766 162.443,127.841 164.556,129.558C165.613,130.351 166.405,130.747 166.405,130.219C166.405,129.69 167.726,130.219 169.443,131.407C171.028,132.464 173.933,133.652 175.65,133.917C177.499,134.181 179.084,134.577 179.348,134.841C179.48,134.973 180.008,135.105 180.669,135.237C181.197,135.369 182.914,136.162 184.631,137.086C186.744,138.275 187.536,138.407 187.536,137.218C187.536,136.426 188.725,136.03 190.177,136.426C191.63,136.822 193.743,136.162 194.8,135.105C195.988,134.049 197.705,133.52 198.762,133.917C199.818,134.313 201.535,133.652 202.724,132.596C203.78,131.407 205.497,130.747 206.422,131.143C207.214,131.407 210.252,130.483 213.157,129.03L218.176,126.389L196.649,118.861C184.895,114.767 174.99,110.805 174.725,110.144C174.461,109.352 176.706,105.918 179.744,102.484C183.838,97.862 185.555,96.674 186.876,97.73C188.989,99.447 223.194,111.069 223.194,110.012C223.194,109.616 224.119,110.144 225.439,111.069C226.628,112.125 227.817,112.786 228.081,112.654C228.213,112.39 228.741,112.39 229.137,112.39C229.534,112.522 230.458,112.786 231.118,112.918C231.911,113.05 232.703,113.446 233.099,113.578C233.496,113.71 234.42,114.106 235.08,114.239C235.873,114.371 236.665,114.767 237.061,114.899C237.458,115.031 238.118,115.295 238.778,115.559C239.307,115.691 241.42,116.484 243.401,117.276C248.023,119.257 247.759,119.257 249.872,117.144C251.721,115.295 268.097,109.352 270.21,109.748C272.984,110.144 274.701,109.484 274.701,107.899C274.701,106.975 268.097,104.201 258.721,101.296C250.004,98.522 241.288,95.617 239.307,94.825C237.326,94.032 235.345,93.24 234.816,93.108C234.156,92.844 233.628,92.711 233.496,92.579C233.231,92.315 231.779,92.051 230.062,91.655C225.439,90.863 209.855,85.712 204.969,83.467L200.611,81.486L205.365,78.316C207.874,76.599 209.988,74.354 209.988,73.43C209.988,70.392 213.818,69.864 221.477,72.109C225.572,73.298 229.798,74.486 230.986,74.618C232.175,74.882 233.231,75.146 233.496,75.279C233.628,75.543 234.42,75.807 235.08,75.939C235.873,76.071 236.665,76.467 237.061,76.599C237.458,76.731 238.382,77.128 239.042,77.26C239.835,77.392 240.627,77.788 241.023,77.92C241.42,78.052 242.344,78.448 243.004,78.58C243.797,78.712 244.589,79.109 244.985,79.241C245.382,79.373 246.306,79.769 246.966,79.901C247.759,80.033 248.419,80.297 248.683,80.561C248.815,80.693 249.872,80.957 250.929,81.222C251.985,81.486 256.343,82.938 260.569,84.391C264.664,85.844 268.097,86.636 268.097,86.24C268.097,85.844 268.89,86.24 269.814,87.033C270.871,87.825 272.984,88.749 274.833,89.014C276.55,89.41 278.134,89.674 278.399,89.938C278.531,90.07 279.059,90.202 279.719,90.466C280.248,90.598 281.568,91.127 282.625,91.523C286.851,93.372 296.096,96.409 296.888,96.145C297.416,96.013 299.661,96.674 301.775,97.598C304.68,98.787 306.397,98.919 307.982,97.862C309.302,97.07 311.415,96.409 312.868,96.409C314.189,96.409 316.038,95.485 317.094,94.296C318.019,93.24 319.868,92.579 321.188,92.844C322.509,93.24 323.962,92.976 324.358,92.183C324.754,91.523 325.943,91.259 326.867,91.655C327.924,92.051 330.169,91.127 332.15,89.542C333.999,88.089 336.376,87.297 337.433,87.693C338.489,88.089 339.414,87.957 339.414,87.297C339.414,86.24 346.017,84.391 351.564,83.863C352.885,83.731 354.866,82.806 355.922,81.882C357.111,80.957 358.3,80.561 358.828,81.09C359.224,81.486 361.073,80.957 362.922,79.769C364.639,78.712 366.356,78.052 366.884,78.448C367.28,78.844 368.997,78.316 370.714,77.26C372.431,76.071 374.412,75.543 374.94,75.939C375.6,76.335 377.185,75.675 378.374,74.354C380.487,72.241 381.015,72.373 386.166,75.146C389.071,76.731 393.033,79.241 394.618,80.561C397.524,82.938 397.524,83.335 395.675,85.184C393.694,87.297 264.531,130.615 259.513,131.011C258.06,131.143 256.211,131.671 255.419,132.332C252.91,134.181 223.458,143.822 222.666,143.029C222.27,142.633 221.081,143.029 219.893,143.954C218.836,144.878 216.855,145.803 215.534,145.935C214.346,146.067 210.912,147.123 208.139,148.444C205.365,149.765 201.799,150.821 200.215,150.821C198.63,150.953 196.781,151.614 195.856,152.274C194.932,152.934 185.423,156.368 174.725,159.802C156.632,165.877 150.425,169.047 157.16,169.047C158.745,169.047 159.538,169.707 159.142,170.367C157.953,172.348 147.916,171.952 147.255,170.103Z" style="fill:white;fill-rule:nonzero;stroke:white;stroke-width:1.32px;"/>
        </g>
    </g>
    <g id="l6JezJ81xO95ZeAYmMoa9b2" transform="matrix(1.32068,0,0,1.32068,-135.335,-61.2094)">
        <g>
            <path id="p1GU8F1uTY" d="M162.443,262.815C161.387,262.154 158.745,260.834 156.5,259.909C153.331,258.456 152.142,256.607 149.765,248.947C148.18,243.929 146.991,239.571 147.123,239.439C147.784,238.778 184.498,254.362 185.027,255.551C185.291,256.343 181.065,258.456 175.65,260.305C164.028,264.399 164.952,264.267 162.443,262.815Z" style="fill:white;fill-rule:nonzero;stroke:white;stroke-width:1.32px;"/>
            <path id="pvfvSLXo3" d="M205.365,239.042C196.649,236.269 179.084,230.59 166.405,226.232L143.293,218.572L142.897,210.252C142.501,202.724 142.765,201.931 144.878,202.592C182.65,214.742 245.118,235.345 245.514,235.873C245.778,236.137 245.778,236.665 245.514,236.797C244.853,237.326 222.402,244.325 221.742,244.325C221.477,244.193 214.082,241.948 205.365,239.042Z" style="fill:white;fill-rule:nonzero;stroke:white;stroke-width:1.32px;"/>
            <path id="pAHYKbUMf" d="M211.308,204.045C175.386,192.026 145.539,181.725 145.142,181.197C143.69,179.744 146.727,166.405 148.444,166.405C149.236,166.405 167.726,172.48 189.649,179.744L229.269,193.215L329.509,159.802C384.449,141.444 430.541,126.389 431.597,126.257C433.974,126.125 440.446,137.747 439.257,139.86C438.729,140.652 436.351,141.577 433.842,142.105C428.295,143.161 427.899,144.878 432.918,146.595C445.2,151.085 445.86,151.746 448.238,159.934C449.426,164.16 450.351,167.99 450.351,168.386C450.351,170.103 445.2,168.518 425.918,161.123C414.56,156.764 404.259,153.198 403.07,153.198C399.373,153.198 373.619,162.047 373.619,163.236C373.619,163.764 391.316,169.971 412.976,176.839C434.635,183.706 452.596,189.517 452.728,189.649C452.992,189.781 453.52,193.611 453.916,197.969C454.445,204.045 454.313,206.026 452.992,206.026C452.068,206.026 427.371,198.366 398.184,188.989L344.961,171.82L331.622,176.178C324.226,178.555 317.887,180.933 317.359,181.461C316.962,181.857 315.51,182.253 314.189,182.253C310.491,182.253 293.19,188.989 293.85,190.177C294.247,190.838 293.454,190.97 292.266,190.706C288.964,189.913 255.023,201.535 257.532,202.592C258.588,202.988 269.022,206.554 280.512,210.384C292.134,214.346 300.982,217.912 300.19,218.308C298.869,219.1 278.531,225.836 277.342,225.836C276.946,225.836 247.231,216.063 211.308,204.045Z" style="fill:white;fill-rule:nonzero;stroke:white;stroke-width:1.32px;"/>
        </g>
    </g>
</svg>
